<svg xmlns="http://www.w3.org/2000/svg" width="105" height="33" viewBox="0 0 105 33">
    <g fill="#6E7682" fill-rule="nonzero">
        <path d="M38.143 2.785c1.707 0 3.09 1.436 3.09 3.206 0 1.771-1.383 3.207-3.09 3.207-1.707 0-3.09-1.436-3.09-3.207 0-1.77 1.383-3.206 3.09-3.206zm-4.54 16.951v3.004c-10.678 2.84-12.788-2.709-12.788-6.342 0-3.633 3.807-7.945 12.727-5.672l.06 3.247c-6.38-1.704-7.313 1.615-7.313 2.889 0 1.274 1.253 4.985 7.314 2.874zm1.86 3.673V10.315h5.149v12.672l7.272-2.439L39.278.174 0 2.459 7.695 22.57V10.14h5.413c.614.024 1.437.096 2.223.175 3.479.35 4.97 2.29 4.97 4.864s-3.263 4.336-6.441 4.336c-.365 0-.702-.008-1.015-.023v3.917h-4.83l3.565 9.315 27.774-9.315h-3.892z"/>
        <path d="M15.468 14.753c0-.903-.523-1.512-1.743-1.635a13.838 13.838 0 0 0-.78-.06h-.312v3.289c.178.001.476-.002.576-.002 1.114 0 2.26-.69 2.26-1.592M52.232 15.154c.266.17.653.31 1.062.31.605 0 .96-.331.96-.811 0-.445-.246-.7-.865-.946-.749-.276-1.211-.678-1.211-1.349 0-.741.592-1.292 1.483-1.292.47 0 .81.114 1.014.233l-.163.502a1.775 1.775 0 0 0-.871-.226c-.626 0-.864.388-.864.713 0 .444.279.663.911.917.776.311 1.17.7 1.17 1.398 0 .734-.523 1.37-1.605 1.37-.442 0-.925-.134-1.17-.304l.15-.515zM57.738 13.862c.007-.395-.156-1.01-.83-1.01-.605 0-.87.58-.918 1.01h1.748zm-1.755.445c.014.84.53 1.186 1.13 1.186.428 0 .687-.078.911-.177l.102.445c-.21.099-.571.212-1.095.212-1.014 0-1.62-.692-1.62-1.723 0-1.03.586-1.842 1.545-1.842 1.075 0 1.361.981 1.361 1.61 0 .126-.014.225-.02.289h-2.314zM61.407 15.775c-.156.085-.503.198-.946.198-.993 0-1.64-.7-1.64-1.744 0-1.052.694-1.814 1.77-1.814.354 0 .666.091.83.176l-.136.48c-.143-.084-.368-.162-.694-.162-.756 0-1.164.579-1.164 1.292 0 .79.49 1.278 1.143 1.278.34 0 .565-.092.735-.17l.102.466zM64.865 14.97c0 .354.007.664.027.932h-.53l-.034-.558h-.014a1.234 1.234 0 0 1-1.089.636c-.517 0-1.136-.296-1.136-1.497v-1.997h.599v1.892c0 .649.19 1.087.735 1.087.401 0 .68-.29.79-.565a.938.938 0 0 0 .053-.318v-2.096h.6v2.485zM65.86 13.551c0-.402-.007-.748-.027-1.065h.524l.02.67h.027c.15-.459.51-.749.912-.749.068 0 .116.008.17.022v.586a.861.861 0 0 0-.204-.022c-.422 0-.721.332-.803.799a1.777 1.777 0 0 0-.027.289v1.821h-.592v-2.35zM68.086 15.902h.599v-3.416h-.6v3.416zm.667-4.377c.006.212-.143.381-.381.381-.211 0-.361-.169-.361-.38 0-.22.156-.39.374-.39.225 0 .368.17.368.39zM70.4 11.504v.981h.857v.473H70.4v1.843c0 .424.116.664.45.664.156 0 .271-.022.346-.042l.027.465c-.115.05-.299.085-.53.085-.28 0-.504-.092-.647-.261-.17-.184-.231-.487-.231-.89v-1.864h-.51v-.473h.51v-.818l.585-.163zM72.279 12.486L73 14.504c.075.226.157.495.211.7h.014c.061-.205.13-.466.21-.714l.654-2.004h.633l-.898 2.435c-.429 1.172-.722 1.772-1.13 2.139-.292.268-.585.374-.735.403l-.15-.523c.15-.05.348-.148.524-.303.164-.134.368-.374.504-.692a.46.46 0 0 0 .048-.149.561.561 0 0 0-.041-.162l-1.218-3.148h.653zM52.232 22.654c.266.17.653.31 1.062.31.605 0 .96-.331.96-.811 0-.445-.246-.7-.865-.946-.749-.275-1.211-.678-1.211-1.349 0-.741.592-1.292 1.483-1.292.47 0 .81.113 1.014.233l-.163.502a1.775 1.775 0 0 0-.871-.226c-.626 0-.864.388-.864.713 0 .444.279.663.911.918.776.31 1.17.698 1.17 1.398 0 .734-.523 1.369-1.605 1.369-.442 0-.925-.134-1.17-.304l.15-.515zM56.37 19.004v.981h.858v.473h-.857v1.843c0 .424.115.664.449.664a1.3 1.3 0 0 0 .347-.042l.027.465c-.115.05-.3.085-.53.085-.28 0-.504-.092-.647-.261-.17-.184-.231-.487-.231-.89v-1.864h-.511v-.473h.51v-.818l.586-.163zM59.638 21.659c-.653-.014-1.395.105-1.395.77 0 .402.258.592.565.592.428 0 .7-.282.796-.572a.673.673 0 0 0 .034-.198v-.592zm.088 1.743l-.047-.43h-.02a1.214 1.214 0 0 1-1.008.508c-.667 0-1.007-.487-1.007-.981 0-.826.708-1.278 1.98-1.271v-.07c0-.283-.075-.792-.749-.792-.306 0-.626.1-.857.255l-.136-.41c.272-.183.667-.303 1.082-.303 1.007 0 1.252.713 1.252 1.397v1.278c0 .297.014.586.054.82h-.544zM61.184 20.91c0-.353-.007-.642-.028-.924h.531l.034.564h.014a1.205 1.205 0 0 1 1.089-.642c.456 0 1.163.282 1.163 1.454v2.04h-.599v-1.97c0-.55-.197-1.009-.762-1.009-.395 0-.7.29-.803.636a.924.924 0 0 0-.04.289v2.054h-.6V20.91zM67.207 21.376c0-.077-.007-.183-.027-.26-.089-.397-.415-.721-.864-.721-.62 0-.987.565-.987 1.32 0 .692.327 1.264.973 1.264.402 0 .769-.276.878-.741.02-.085.027-.17.027-.269v-.593zm.6-2.986v4.13c0 .303.006.65.026.882h-.537l-.028-.593h-.013c-.184.382-.585.671-1.123.671-.796 0-1.409-.699-1.409-1.737-.007-1.136.674-1.835 1.477-1.835.504 0 .844.247.994.522h.013v-2.04h.6zM70.536 21.659c-.654-.014-1.395.105-1.395.77 0 .402.259.592.565.592.428 0 .7-.282.796-.572a.673.673 0 0 0 .034-.198v-.592zm.088 1.743l-.047-.43h-.02a1.214 1.214 0 0 1-1.008.508c-.667 0-1.007-.487-1.007-.981 0-.826.708-1.278 1.98-1.271v-.07c0-.283-.074-.792-.748-.792-.306 0-.626.1-.858.255l-.136-.41c.272-.183.667-.303 1.082-.303 1.007 0 1.252.713 1.252 1.397v1.278c0 .297.014.586.055.82h-.545zM72.081 21.051c0-.402-.006-.748-.027-1.065h.524l.02.67h.028c.15-.459.51-.748.912-.748.068 0 .115.007.17.021v.586a.849.849 0 0 0-.204-.022c-.422 0-.722.332-.803.799a1.796 1.796 0 0 0-.027.289v1.821h-.593v-2.35zM76.553 21.376c0-.077-.007-.183-.027-.26-.089-.397-.415-.721-.864-.721-.62 0-.987.565-.987 1.32 0 .692.326 1.264.973 1.264.401 0 .77-.276.878-.741.02-.085.027-.17.027-.269v-.593zm.599-2.986v4.13c0 .303.007.65.027.882h-.537l-.028-.593h-.013c-.184.382-.585.671-1.123.671-.796 0-1.409-.699-1.409-1.737-.007-1.136.674-1.835 1.477-1.835.503 0 .844.247.994.522h.013v-2.04h.599zM78.065 22.767c.177.12.49.247.79.247.435 0 .639-.226.639-.508 0-.297-.17-.46-.613-.628-.591-.22-.87-.558-.87-.968 0-.55.428-1.002 1.136-1.002.333 0 .626.098.81.212l-.15.452a1.249 1.249 0 0 0-.674-.198c-.354 0-.551.211-.551.466 0 .282.197.41.626.579.572.226.864.522.864 1.03 0 .6-.449 1.024-1.231 1.024-.36 0-.694-.092-.926-.233l.15-.473zM86.321 23.247c-.218.113-.653.226-1.211.226-1.293 0-2.266-.847-2.266-2.407 0-1.49.973-2.5 2.395-2.5.572 0 .932.127 1.089.212l-.143.501a2.093 2.093 0 0 0-.925-.197c-1.076 0-1.79.713-1.79 1.962 0 1.165.646 1.914 1.762 1.914.361 0 .729-.078.967-.198l.122.487zM87.336 21.701c0 .748.415 1.313 1 1.313.572 0 1-.558 1-1.327 0-.579-.278-1.313-.986-1.313s-1.014.678-1.014 1.327m2.613-.036c0 1.264-.843 1.815-1.64 1.815-.891 0-1.578-.678-1.578-1.758 0-1.143.72-1.814 1.633-1.814.946 0 1.585.713 1.585 1.757M93.462 22.47c0 .353.007.664.027.932h-.53l-.035-.557h-.013a1.234 1.234 0 0 1-1.089.635c-.517 0-1.137-.296-1.137-1.497v-1.997h.6v1.892c0 .649.19 1.087.734 1.087.402 0 .68-.29.79-.565a.944.944 0 0 0 .054-.318v-2.096h.599v2.485zM94.456 20.91c0-.353-.007-.642-.027-.924h.531l.034.564h.014a1.205 1.205 0 0 1 1.089-.642c.455 0 1.163.282 1.163 1.454v2.04h-.599v-1.97c0-.55-.197-1.009-.762-1.009-.395 0-.7.29-.803.636a.92.92 0 0 0-.04.289v2.054h-.6V20.91zM100.582 23.275c-.156.085-.504.198-.946.198-.993 0-1.64-.699-1.64-1.744 0-1.052.694-1.814 1.77-1.814.353 0 .666.091.83.176l-.136.48c-.143-.084-.368-.162-.694-.162-.756 0-1.164.579-1.164 1.292 0 .79.49 1.278 1.143 1.278.34 0 .565-.092.735-.17l.102.466zM101.284 23.402h.599v-3.416h-.6v3.416zm.667-4.377c.007.212-.143.381-.381.381-.211 0-.36-.17-.36-.38 0-.22.156-.39.373-.39.225 0 .368.17.368.39zM102.877 23.402h.599V18.39h-.6z"/>
    </g>
</svg>
