<svg xmlns="http://www.w3.org/2000/svg" width="114" height="20" viewBox="0 0 114 20">
    <g fill="#6F7682" fill-rule="evenodd">
        <g fill-rule="nonzero">
            <path d="M2.226 5.202c.594 9.357 5.927 11.926 7.772 12.535 1.845-.609 7.178-3.178 7.772-12.535-2.103-.845-5.614-2.228-7.772-2.924-2.165.699-5.672 2.08-7.772 2.924zm11.492.077l1.304.87c.1.068.168.173.188.291.02.12-.011.24-.084.336l-5.652 7.4c-.076.1-.191.162-.316.17l-.03.001c-.114 0-.225-.046-.307-.127l-3.043-3.047c-.17-.17-.17-.446 0-.616l1.304-1.306c.082-.081.192-.127.308-.127.115 0 .226.046.307.127l1.39 1.39 4.045-5.265c.14-.182.395-.224.586-.097z"/>
            <path d="M9.998 0C7.282.798 1.338 3.21 0 3.756c.127 13.55 9.067 16.02 10 16.24 1.027-.226 9.872-2.58 9.997-16.24C18.659 3.21 12.715.798 9.998 0zm.129 18.61c-.084.026-.173.026-.257 0-1.866-.577-7.994-3.268-8.53-13.673-.01-.185.1-.356.272-.426 2.105-.848 5.976-2.38 8.255-3.105.085-.027.177-.027.263 0 2.271.722 6.147 2.255 8.255 3.105.172.07.281.24.271.426-.535 10.405-6.664 13.096-8.53 13.673z"/>
        </g>
        <text font-family="PTSans-Bold, PT Sans" font-size="14" font-weight="bold">
            <tspan x="30" y="15">Safe &amp; Secure</tspan>
        </text>
    </g>
</svg>
